<svg id="Layer_1" enable-background="new 0 0 512 512" height="512" viewBox="0 0 512 512" width="512" xmlns="http://www.w3.org/2000/svg" xmlns:xlink="http://www.w3.org/1999/xlink"><linearGradient id="SVGID_1_" gradientUnits="userSpaceOnUse" x1="73.449" x2="438.551" y1="190.668" y2="190.668"><stop offset="0" stop-color="#ffde55"/><stop offset="1" stop-color="#ffeda1"/></linearGradient><linearGradient id="SVGID_2_" gradientUnits="userSpaceOnUse" x1="133.404" x2="378.596" y1="190.668" y2="190.668"><stop offset="0" stop-color="#ffb000"/><stop offset="1" stop-color="#ffcd00"/></linearGradient><linearGradient id="SVGID_3_" gradientUnits="userSpaceOnUse" x1="0" x2="512" y1="365.767" y2="365.767"><stop offset="0" stop-color="#81d9e7"/><stop offset="1" stop-color="#b5e9f1"/></linearGradient><path d="m425.967 215.251-13.865 9.994c-9.195 6.628-13.036 18.449-9.493 29.215l5.34 16.226c6.467 19.652-8.225 39.864-28.914 39.775l-17.077-.073c-11.348-.049-21.417 7.27-24.873 18.079l-5.183 16.21c-6.307 19.723-30.096 27.452-46.791 15.202l-13.731-10.075c-9.153-6.716-21.606-6.716-30.759 0l-13.73 10.075c-16.694 12.25-40.484 4.521-46.791-15.202l-5.184-16.21c-3.456-10.809-13.525-18.127-24.873-18.079l-17.077.073c-20.689.089-35.382-20.123-28.914-39.775l5.339-16.226c3.543-10.767-.298-22.588-9.493-29.216l-13.866-9.994c-16.779-12.094-16.779-37.072 0-49.165l13.865-9.994c9.195-6.628 13.036-18.449 9.493-29.215l-5.34-16.226c-6.467-19.653 8.225-39.864 28.914-39.775l17.077.073c11.348.049 21.417-7.27 24.873-18.079l5.183-16.21c6.307-19.723 30.096-27.452 46.791-15.202l13.731 10.075c9.153 6.716 21.606 6.716 30.759 0l13.73-10.075c16.694-12.25 40.484-4.521 46.791 15.202l5.184 16.21c3.456 10.809 13.525 18.127 24.873 18.079l17.077-.073c20.689-.089 35.382 20.123 28.914 39.775l-5.339 16.226c-3.543 10.767.298 22.588 9.493 29.215l13.866 9.995c16.779 12.093 16.779 37.071 0 49.165z" fill="url(#SVGID_1_)"/><circle cx="256" cy="190.668" fill="url(#SVGID_2_)" r="122.596"/><path d="m426.083 235.108c-24.49-.289-46.677 9.549-62.646 25.587-12.697 12.751-33.19 12.681-45.898-.058-15.736-15.774-37.494-25.535-61.539-25.535s-45.803 9.761-61.539 25.535c-12.709 12.739-33.202 12.81-45.898.058-15.969-16.038-38.156-25.876-62.646-25.587-47.813.564-85.917 40.321-85.917 88.138v99.431c0 40.733 33.021 73.754 73.754 73.754h364.491c40.733 0 73.754-33.021 73.754-73.754v-99.431c.001-47.817-38.103-87.574-85.916-88.138z" fill="url(#SVGID_3_)"/><path d="m340.558 320.225c-5.523 0-10.001-4.477-10.001-9.999 0-5.523 4.477-10.001 9.999-10.001 16.675-.001 32.351-6.522 44.141-18.362 3.896-3.914 10.229-3.928 14.142-.03 3.914 3.896 3.928 10.228.03 14.142-15.571 15.637-36.28 24.25-58.311 24.25z" fill="#e9fdff"/><path d="m104.188 406.734c36.144 16.566 67.691 21.324 92.014 21.324 31.624-.001 51.033-8.046 52.425-8.644 11.875-5.088 17.375-18.84 12.286-30.713-5.088-11.875-18.839-17.373-30.713-12.286-.413.176-43.056 16.879-106.52-12.21-36.219-16.598-84.752-22.819-123.68-.325v52.921c15.643-10.365 56.746-31.81 104.188-10.067z" fill="#3ccbde"/><path d="m512 332.285c-37.421 24.36-82.044 22.678-100.307 20.454-19.109-2.327-24.653 13.991-24.653 13.991-6.11 14.258 3.389 28.84 18.491 32.384 35.127 8.243 73.951-2.563 106.469-16.074z" fill="#3ccbde"/><ellipse cx="168.114" cy="204.732" fill="#ff85ab" rx="14.936" ry="12.003"/><ellipse cx="343.886" cy="204.732" fill="#ff85ab" rx="14.936" ry="12.003"/><circle cx="193.721" cy="175.114" fill="#fff" r="29.618"/><circle cx="205.687" cy="175.114" fill="#383842" r="17.652"/><circle cx="318.279" cy="175.114" fill="#fff" r="29.618"/><circle cx="330.182" cy="175.114" fill="#383842" r="17.652"/><ellipse cx="256" cy="197.566" fill="#383842" rx="13.252" ry="17.352"/><circle cx="305.682" cy="299.572" fill="#e9fdff" r="10"/></svg>